<svg xmlns="http://www.w3.org/2000/svg" xmlns:xlink="http://www.w3.org/1999/xlink" width="500" zoomAndPan="magnify" viewBox="0 0 375 374.999991" height="500" preserveAspectRatio="xMidYMid meet" version="1.0"><defs><g/><clipPath id="e857df2d18"><path d="M 206.445312 179.816406 L 242.300781 179.816406 L 242.300781 212.722656 L 206.445312 212.722656 Z M 206.445312 179.816406 " clip-rule="nonzero"/></clipPath><clipPath id="95f9e719bd"><path d="M 226 134 L 242 134 L 242 148 L 226 148 Z M 226 134 " clip-rule="nonzero"/></clipPath><clipPath id="28295d558b"><path d="M 274.351562 167.550781 L 223.96875 217.933594 L 177.300781 171.265625 L 227.679688 120.882812 Z M 274.351562 167.550781 " clip-rule="nonzero"/></clipPath><clipPath id="16f8cddba1"><path d="M 274.351562 167.550781 L 223.96875 217.933594 L 177.300781 171.265625 L 227.679688 120.882812 Z M 274.351562 167.550781 " clip-rule="nonzero"/></clipPath><clipPath id="4955d3e1b6"><path d="M 274.351562 167.550781 L 223.96875 217.933594 L 177.300781 171.265625 L 227.679688 120.882812 Z M 274.351562 167.550781 " clip-rule="nonzero"/></clipPath><clipPath id="cab124b615"><path d="M 234 134 L 242 134 L 242 139 L 234 139 Z M 234 134 " clip-rule="nonzero"/></clipPath><clipPath id="cf6e11e665"><path d="M 274.351562 167.550781 L 223.96875 217.933594 L 177.300781 171.265625 L 227.679688 120.882812 Z M 274.351562 167.550781 " clip-rule="nonzero"/></clipPath><clipPath id="6cb1d85788"><path d="M 274.351562 167.550781 L 223.96875 217.933594 L 177.300781 171.265625 L 227.679688 120.882812 Z M 274.351562 167.550781 " clip-rule="nonzero"/></clipPath><clipPath id="770c8fe4bb"><path d="M 274.351562 167.550781 L 223.96875 217.933594 L 177.300781 171.265625 L 227.679688 120.882812 Z M 274.351562 167.550781 " clip-rule="nonzero"/></clipPath><clipPath id="e7e9f965e6"><path d="M 208 179 L 240 179 L 240 212 L 208 212 Z M 208 179 " clip-rule="nonzero"/></clipPath><clipPath id="a2f1a14241"><path d="M 274.351562 167.550781 L 223.96875 217.933594 L 177.300781 171.265625 L 227.679688 120.882812 Z M 274.351562 167.550781 " clip-rule="nonzero"/></clipPath><clipPath id="03c3ce145d"><path d="M 274.351562 167.550781 L 223.96875 217.933594 L 177.300781 171.265625 L 227.679688 120.882812 Z M 274.351562 167.550781 " clip-rule="nonzero"/></clipPath><clipPath id="7b5b29a56d"><path d="M 274.351562 167.550781 L 223.96875 217.933594 L 177.300781 171.265625 L 227.679688 120.882812 Z M 274.351562 167.550781 " clip-rule="nonzero"/></clipPath><clipPath id="9946a556a8"><path d="M 220 127 L 228 127 L 228 178 L 220 178 Z M 220 127 " clip-rule="nonzero"/></clipPath><clipPath id="2f6e9a65f4"><path d="M 274.351562 167.550781 L 223.96875 217.933594 L 177.300781 171.265625 L 227.679688 120.882812 Z M 274.351562 167.550781 " clip-rule="nonzero"/></clipPath><clipPath id="d3be59d652"><path d="M 274.351562 167.550781 L 223.96875 217.933594 L 177.300781 171.265625 L 227.679688 120.882812 Z M 274.351562 167.550781 " clip-rule="nonzero"/></clipPath><clipPath id="368f3105ea"><path d="M 274.351562 167.550781 L 223.96875 217.933594 L 177.300781 171.265625 L 227.679688 120.882812 Z M 274.351562 167.550781 " clip-rule="nonzero"/></clipPath><clipPath id="8080737f3b"><path d="M 218 173 L 230 173 L 230 181 L 218 181 Z M 218 173 " clip-rule="nonzero"/></clipPath><clipPath id="d39ead2a9e"><path d="M 274.351562 167.550781 L 223.96875 217.933594 L 177.300781 171.265625 L 227.679688 120.882812 Z M 274.351562 167.550781 " clip-rule="nonzero"/></clipPath><clipPath id="042a5da982"><path d="M 274.351562 167.550781 L 223.96875 217.933594 L 177.300781 171.265625 L 227.679688 120.882812 Z M 274.351562 167.550781 " clip-rule="nonzero"/></clipPath><clipPath id="f4ff114e91"><path d="M 274.351562 167.550781 L 223.96875 217.933594 L 177.300781 171.265625 L 227.679688 120.882812 Z M 274.351562 167.550781 " clip-rule="nonzero"/></clipPath><clipPath id="2c2fa50592"><path d="M 0 181.179688 L 71.25 181.179688 L 71.25 253.929688 L 0 253.929688 Z M 0 181.179688 " clip-rule="nonzero"/></clipPath></defs><rect x="-37.5" width="450" fill="#ffffff" y="-37.499999" height="449.999989" fill-opacity="1"/><rect x="-37.5" width="450" fill="#ffffff" y="-37.499999" height="449.999989" fill-opacity="1"/><g fill="#ff5757" fill-opacity="1"><g transform="translate(71.260634, 207.533499)"><g><path d="M 24.851562 0 L 14.953125 -13.644531 L 23.875 -26.238281 L 17.277344 -26.238281 L 8.65625 -14.09375 L 8.65625 -26.238281 L 3 -26.238281 L 3 0 L 8.65625 0 L 8.65625 -12.78125 L 17.917969 0 Z M 24.851562 0 "/></g></g></g><g fill="#ff5757" fill-opacity="1"><g transform="translate(99.443952, 207.533499)"><g><path d="M 17.429688 0 L 23.761719 0 L 17.953125 -9.894531 C 20.878906 -11.320312 22.75 -14.09375 22.75 -17.542969 C 22.75 -22.601562 18.816406 -26.238281 13.566406 -26.238281 L 3 -26.238281 L 3 0 L 8.65625 0 L 8.65625 -8.921875 L 12.292969 -8.921875 Z M 8.65625 -20.988281 L 13.195312 -20.988281 C 15.59375 -20.988281 16.980469 -19.527344 16.980469 -17.578125 C 16.980469 -15.59375 15.59375 -14.167969 13.195312 -14.167969 L 8.65625 -14.167969 Z M 8.65625 -20.988281 "/></g></g></g><g fill="#ff5757" fill-opacity="1"><g transform="translate(127.814651, 207.533499)"><g><path d="M 24.851562 -26.238281 L 18.777344 -26.238281 L 12.707031 -15.703125 L 6.671875 -26.238281 L 0.636719 -26.238281 L 9.78125 -10.605469 L 9.78125 0 L 15.59375 0 L 15.59375 -10.570312 Z M 24.851562 -26.238281 "/></g></g></g><g fill="#ff5757" fill-opacity="1"><g transform="translate(156.859927, 207.533499)"><g><path d="M 13.082031 -26.238281 L 3 -26.238281 L 3 0 L 8.65625 0 L 8.65625 -8.171875 L 13.082031 -8.171875 C 18.367188 -8.171875 22.339844 -12.03125 22.339844 -17.203125 C 22.339844 -22.375 18.328125 -26.238281 13.082031 -26.238281 Z M 12.820312 -13.417969 L 8.65625 -13.417969 L 8.65625 -20.953125 L 12.820312 -20.953125 C 15.066406 -20.953125 16.605469 -19.378906 16.605469 -17.203125 C 16.605469 -15.03125 15.066406 -13.417969 12.820312 -13.417969 Z M 12.820312 -13.417969 "/></g></g></g><g fill="#ff5757" fill-opacity="1"><g transform="translate(183.769037, 207.533499)"><g><path d="M 21.0625 -26.238281 L 0.785156 -26.238281 L 0.785156 -20.953125 L 8.097656 -20.953125 L 8.097656 0 L 13.753906 0 L 13.753906 -20.953125 L 21.0625 -20.953125 Z M 21.0625 -26.238281 "/></g></g></g><g fill="#5ce1e6" fill-opacity="1"><g transform="translate(209.271978, 207.533499)"><g><path d="M 15.441406 0.601562 C 23.425781 0.601562 29.386719 -5.285156 29.386719 -13.117188 C 29.386719 -20.914062 23.425781 -26.800781 15.441406 -26.800781 C 7.421875 -26.800781 1.425781 -20.878906 1.425781 -13.117188 C 1.425781 -5.324219 7.421875 0.601562 15.441406 0.601562 Z M 15.441406 -4.761719 C 10.757812 -4.761719 7.195312 -8.394531 7.195312 -13.117188 C 7.195312 -17.839844 10.757812 -21.4375 15.441406 -21.4375 C 20.128906 -21.4375 23.613281 -17.878906 23.613281 -13.117188 C 23.613281 -8.359375 20.128906 -4.761719 15.441406 -4.761719 Z M 15.441406 -4.761719 "/></g></g></g><g fill="#5ce1e6" fill-opacity="1"><g transform="translate(243.713892, 207.533499)"><g><path d="M 19.601562 -26.238281 L 19.601562 -10.230469 L 8.097656 -26.238281 L 3 -26.238281 L 3 0 L 8.546875 0 L 8.546875 -16.378906 L 20.425781 0 L 25.1875 0 L 25.1875 -26.238281 Z M 19.601562 -26.238281 "/></g></g></g><g fill="#5ce1e6" fill-opacity="1"><g transform="translate(275.494957, 207.533499)"><g><path d="M 3 0 L 8.65625 0 L 8.65625 -26.238281 L 3 -26.238281 Z M 3 0 "/></g></g></g><g fill="#5ce1e6" fill-opacity="1"><g transform="translate(290.786309, 207.533499)"><g><path d="M 15.03125 0.601562 C 21.515625 0.601562 26.613281 -3.75 27.8125 -10.230469 L 22.078125 -10.230469 C 21.140625 -6.933594 18.476562 -4.835938 15.03125 -4.835938 C 10.570312 -4.835938 7.234375 -8.359375 7.234375 -13.082031 C 7.234375 -17.804688 10.570312 -21.363281 15.03125 -21.363281 C 18.328125 -21.363281 20.953125 -19.414062 22.039062 -16.34375 L 27.699219 -16.34375 C 26.5 -22.5625 21.402344 -26.800781 15.03125 -26.800781 C 7.308594 -26.800781 1.460938 -20.878906 1.460938 -13.082031 C 1.460938 -5.324219 7.308594 0.601562 15.03125 0.601562 Z M 15.03125 0.601562 "/></g></g></g><g fill="#5ce1e6" fill-opacity="1"><g transform="translate(323.279439, 207.533499)"><g><path d="M 20.390625 0 L 26.574219 0 L 15.96875 -26.238281 L 10.605469 -26.238281 L 0.300781 0 L 6.335938 0 L 8.132812 -4.949219 L 18.554688 -4.949219 Z M 13.34375 -19.304688 L 16.792969 -9.894531 L 9.894531 -9.894531 Z M 13.34375 -19.304688 "/></g></g></g><g clip-path="url(#e857df2d18)"><path fill="#ffffff" d="M 206.445312 179.816406 L 242.300781 179.816406 L 242.300781 212.722656 L 206.445312 212.722656 Z M 206.445312 179.816406 " fill-opacity="1" fill-rule="nonzero"/></g><g clip-path="url(#95f9e719bd)"><g clip-path="url(#28295d558b)"><g clip-path="url(#16f8cddba1)"><g clip-path="url(#4955d3e1b6)"><path fill="#c98d09" d="M 226.132812 147.929688 L 241.0625 147.878906 L 241.070312 145.167969 L 237 145.179688 L 237.003906 143.824219 L 238.359375 143.816406 L 238.371094 141.101562 L 234.296875 141.117188 L 234.308594 138.402344 L 241.09375 138.378906 L 241.097656 137.023438 L 238.382812 137.03125 L 238.386719 135.675781 L 241.101562 135.664062 L 241.105469 134.308594 L 226.175781 134.355469 Z M 226.132812 147.929688 " fill-opacity="1" fill-rule="nonzero"/></g></g></g></g><g clip-path="url(#cab124b615)"><g clip-path="url(#cf6e11e665)"><g clip-path="url(#6cb1d85788)"><g clip-path="url(#770c8fe4bb)"><path fill="#a67508" d="M 241.09375 138.378906 L 241.097656 137.023438 L 238.382812 137.03125 L 238.386719 135.675781 L 241.101562 135.664062 L 241.105469 134.308594 L 234.320312 134.332031 L 234.308594 138.402344 Z M 241.09375 138.378906 " fill-opacity="1" fill-rule="nonzero"/></g></g></g></g><g clip-path="url(#e7e9f965e6)"><g clip-path="url(#a2f1a14241)"><g clip-path="url(#03c3ce145d)"><g clip-path="url(#7b5b29a56d)"><path fill="#ffc107" d="M 212.78125 184.277344 C 218.976562 178.082031 229.019531 178.050781 235.175781 184.207031 C 241.332031 190.359375 241.296875 200.40625 235.101562 206.601562 C 228.90625 212.796875 218.863281 212.828125 212.707031 206.671875 C 206.554688 200.519531 206.585938 190.472656 212.78125 184.277344 Z M 231.042969 202.542969 C 234.992188 198.59375 235.015625 192.214844 231.089844 188.289062 C 227.167969 184.367188 220.789062 184.386719 216.839844 188.335938 C 212.890625 192.285156 212.871094 198.664062 216.792969 202.589844 C 220.714844 206.511719 227.09375 206.492188 231.042969 202.542969 Z M 231.042969 202.542969 " fill-opacity="1" fill-rule="nonzero"/></g></g></g></g><g clip-path="url(#9946a556a8)"><g clip-path="url(#2f6e9a65f4)"><g clip-path="url(#d3be59d652)"><g clip-path="url(#368f3105ea)"><path fill="#ffc107" d="M 221.71875 127.585938 L 226.605469 127.570312 C 227.148438 127.566406 227.554688 127.972656 227.554688 128.515625 L 227.394531 177.105469 L 220.609375 177.128906 L 220.765625 128.539062 C 220.769531 127.996094 221.175781 127.585938 221.71875 127.585938 Z M 221.71875 127.585938 " fill-opacity="1" fill-rule="nonzero"/></g></g></g></g><g clip-path="url(#8080737f3b)"><g clip-path="url(#d39ead2a9e)"><g clip-path="url(#042a5da982)"><g clip-path="url(#f4ff114e91)"><path fill="#c98d09" d="M 229.503906 175.128906 L 229.492188 179.066406 C 229.488281 180.015625 228.671875 180.832031 227.722656 180.835938 L 220.257812 180.859375 C 219.308594 180.863281 218.496094 180.050781 218.5 179.101562 L 218.511719 175.167969 C 218.515625 174.214844 219.332031 173.398438 220.28125 173.394531 L 227.746094 173.371094 C 228.695312 173.367188 229.507812 174.179688 229.503906 175.128906 Z M 229.503906 175.128906 " fill-opacity="1" fill-rule="nonzero"/></g></g></g></g><path fill="#000000" d="M 24.914062 212.359375 C 24.910156 212.367188 24.902344 212.367188 24.898438 212.371094 C 24.890625 212.378906 24.890625 212.386719 24.886719 212.390625 C 23.574219 213.703125 22.765625 215.511719 22.765625 217.503906 C 22.765625 219.5 23.574219 221.304688 24.886719 222.621094 C 24.890625 222.625 24.890625 222.632812 24.898438 222.636719 C 24.902344 222.644531 24.910156 222.644531 24.914062 222.648438 C 26.234375 223.957031 28.046875 224.765625 30.046875 224.765625 C 32.046875 224.765625 33.859375 223.957031 35.179688 222.648438 C 35.183594 222.644531 35.191406 222.644531 35.195312 222.636719 C 35.203125 222.632812 35.203125 222.625 35.210938 222.621094 C 36.519531 221.304688 37.332031 219.5 37.332031 217.503906 C 37.332031 215.511719 36.519531 213.703125 35.210938 212.390625 C 35.203125 212.386719 35.203125 212.378906 35.195312 212.371094 C 35.191406 212.367188 35.183594 212.367188 35.179688 212.359375 C 33.859375 211.054688 32.046875 210.246094 30.046875 210.246094 C 28.046875 210.246094 26.234375 211.054688 24.914062 212.359375 Z M 29.46875 211.429688 L 29.46875 215.347656 C 29.277344 215.398438 29.09375 215.476562 28.925781 215.574219 L 26.148438 212.800781 C 27.066406 212.042969 28.214844 211.550781 29.46875 211.429688 Z M 25.328125 213.621094 L 28.109375 216.390625 C 28.011719 216.558594 27.933594 216.738281 27.882812 216.929688 L 23.953125 216.929688 C 24.070312 215.679688 24.566406 214.535156 25.328125 213.621094 Z M 23.953125 218.082031 L 27.882812 218.082031 C 27.933594 218.273438 28.011719 218.453125 28.109375 218.621094 L 25.328125 221.390625 C 24.566406 220.476562 24.070312 219.332031 23.953125 218.082031 Z M 29.46875 223.578125 C 28.214844 223.460938 27.066406 222.96875 26.148438 222.207031 L 28.925781 219.4375 C 29.09375 219.535156 29.273438 219.613281 29.46875 219.664062 Z M 28.957031 217.503906 C 28.957031 216.90625 29.445312 216.421875 30.046875 216.421875 C 30.648438 216.421875 31.136719 216.90625 31.136719 217.503906 C 31.136719 218.105469 30.648438 218.589844 30.046875 218.589844 C 29.445312 218.589844 28.957031 218.105469 28.957031 217.503906 Z M 30.625 223.578125 L 30.625 219.664062 C 30.816406 219.609375 30.996094 219.535156 31.164062 219.4375 L 33.945312 222.207031 C 33.027344 222.96875 31.878906 223.460938 30.625 223.578125 Z M 34.765625 221.390625 L 31.984375 218.621094 C 32.082031 218.453125 32.160156 218.273438 32.210938 218.082031 L 36.140625 218.082031 C 36.023438 219.332031 35.527344 220.476562 34.765625 221.390625 Z M 36.140625 216.929688 L 32.210938 216.929688 C 32.160156 216.738281 32.082031 216.558594 31.984375 216.390625 L 34.765625 213.621094 C 35.527344 214.535156 36.023438 215.679688 36.140625 216.929688 Z M 30.625 211.429688 C 31.878906 211.546875 33.023438 212.042969 33.945312 212.800781 L 31.164062 215.574219 C 30.996094 215.476562 30.816406 215.398438 30.625 215.347656 Z M 30.625 211.429688 " fill-opacity="1" fill-rule="nonzero"/><path fill="#000000" d="M 30.046875 194.28125 C 31.203125 194.28125 32.144531 193.339844 32.144531 192.1875 C 32.144531 191.035156 31.203125 190.097656 30.046875 190.097656 C 28.890625 190.097656 27.949219 191.035156 27.949219 192.1875 C 27.949219 193.339844 28.890625 194.28125 30.046875 194.28125 Z M 30.046875 191.253906 C 30.5625 191.253906 30.984375 191.671875 30.984375 192.1875 C 30.984375 192.703125 30.5625 193.125 30.046875 193.125 C 29.527344 193.125 29.109375 192.703125 29.109375 192.1875 C 29.109375 191.671875 29.53125 191.253906 30.046875 191.253906 Z M 30.046875 191.253906 " fill-opacity="1" fill-rule="nonzero"/><path fill="#000000" d="M 12.085938 201.695312 C 12.625 201.695312 13.164062 201.492188 13.570312 201.082031 C 14.390625 200.265625 14.390625 198.941406 13.570312 198.125 C 12.777344 197.335938 11.394531 197.335938 10.605469 198.125 C 9.785156 198.941406 9.785156 200.265625 10.605469 201.082031 C 11.011719 201.492188 11.550781 201.695312 12.085938 201.695312 Z M 11.421875 198.941406 C 11.605469 198.761719 11.847656 198.667969 12.085938 198.667969 C 12.328125 198.667969 12.566406 198.757812 12.75 198.941406 C 13.117188 199.308594 13.117188 199.902344 12.75 200.265625 C 12.386719 200.628906 11.789062 200.628906 11.421875 200.265625 C 11.058594 199.902344 11.058594 199.308594 11.421875 198.941406 Z M 11.421875 198.941406 " fill-opacity="1" fill-rule="nonzero"/><path fill="#000000" d="M 4.648438 215.414062 C 3.492188 215.414062 2.550781 216.351562 2.550781 217.503906 C 2.550781 218.660156 3.492188 219.597656 4.648438 219.597656 C 5.804688 219.597656 6.746094 218.660156 6.746094 217.503906 C 6.746094 216.351562 5.804688 215.414062 4.648438 215.414062 Z M 4.648438 218.441406 C 4.132812 218.441406 3.710938 218.019531 3.710938 217.503906 C 3.710938 216.988281 4.132812 216.570312 4.648438 216.570312 C 5.167969 216.570312 5.585938 216.988281 5.585938 217.503906 C 5.585938 218.019531 5.167969 218.441406 4.648438 218.441406 Z M 4.648438 218.441406 " fill-opacity="1" fill-rule="nonzero"/><path fill="#000000" d="M 10.605469 233.929688 C 9.785156 234.742188 9.785156 236.070312 10.605469 236.886719 C 11.011719 237.292969 11.550781 237.496094 12.085938 237.496094 C 12.625 237.496094 13.164062 237.292969 13.570312 236.886719 C 14.390625 236.070312 14.390625 234.742188 13.570312 233.929688 C 12.777344 233.136719 11.394531 233.136719 10.605469 233.929688 Z M 12.75 236.070312 C 12.386719 236.433594 11.789062 236.433594 11.421875 236.070312 C 11.058594 235.703125 11.058594 235.109375 11.421875 234.746094 C 11.605469 234.5625 11.847656 234.472656 12.085938 234.472656 C 12.328125 234.472656 12.566406 234.5625 12.75 234.746094 C 13.117188 235.109375 13.117188 235.703125 12.75 236.070312 Z M 12.75 236.070312 " fill-opacity="1" fill-rule="nonzero"/><path fill="#000000" d="M 30.046875 240.730469 C 28.890625 240.730469 27.949219 241.667969 27.949219 242.820312 C 27.949219 243.976562 28.890625 244.914062 30.046875 244.914062 C 31.203125 244.914062 32.144531 243.976562 32.144531 242.820312 C 32.144531 241.667969 31.203125 240.730469 30.046875 240.730469 Z M 30.046875 243.757812 C 29.527344 243.757812 29.109375 243.335938 29.109375 242.820312 C 29.109375 242.304688 29.53125 241.886719 30.046875 241.886719 C 30.5625 241.886719 30.984375 242.304688 30.984375 242.820312 C 30.984375 243.339844 30.5625 243.757812 30.046875 243.757812 Z M 30.046875 243.757812 " fill-opacity="1" fill-rule="nonzero"/><path fill="#000000" d="M 55.445312 219.597656 C 56.601562 219.597656 57.542969 218.660156 57.542969 217.503906 C 57.542969 216.351562 56.601562 215.414062 55.445312 215.414062 C 54.289062 215.414062 53.347656 216.351562 53.347656 217.503906 C 53.347656 218.660156 54.289062 219.597656 55.445312 219.597656 Z M 55.445312 216.570312 C 55.960938 216.570312 56.382812 216.988281 56.382812 217.503906 C 56.382812 218.023438 55.960938 218.441406 55.445312 218.441406 C 54.925781 218.441406 54.507812 218.019531 54.507812 217.503906 C 54.507812 216.988281 54.925781 216.570312 55.445312 216.570312 Z M 55.445312 216.570312 " fill-opacity="1" fill-rule="nonzero"/><path fill="#000000" d="M 68.535156 247.320312 C 68.535156 247.496094 68.472656 247.644531 68.347656 247.769531 C 68.222656 247.894531 68.074219 247.953125 67.894531 247.953125 C 67.71875 247.953125 67.570312 247.894531 67.445312 247.769531 C 67.320312 247.644531 67.257812 247.496094 67.257812 247.320312 C 67.257812 247.144531 67.320312 246.992188 67.445312 246.871094 C 67.570312 246.746094 67.71875 246.683594 67.894531 246.683594 C 68.074219 246.683594 68.222656 246.746094 68.347656 246.871094 C 68.472656 246.992188 68.535156 247.144531 68.535156 247.320312 Z M 68.535156 247.320312 " fill-opacity="1" fill-rule="nonzero"/><path fill="#000000" d="M 68.535156 250.25 C 68.535156 250.425781 68.472656 250.574219 68.347656 250.699219 C 68.222656 250.824219 68.074219 250.886719 67.894531 250.886719 C 67.71875 250.886719 67.570312 250.824219 67.445312 250.699219 C 67.320312 250.574219 67.257812 250.425781 67.257812 250.25 C 67.257812 250.074219 67.320312 249.925781 67.445312 249.800781 C 67.570312 249.675781 67.71875 249.613281 67.894531 249.613281 C 68.074219 249.613281 68.222656 249.675781 68.347656 249.800781 C 68.472656 249.925781 68.535156 250.074219 68.535156 250.25 Z M 68.535156 250.25 " fill-opacity="1" fill-rule="nonzero"/><g clip-path="url(#2c2fa50592)"><path fill="#000000" d="M 70.621094 191.34375 C 70.941406 191.34375 71.203125 191.085938 71.203125 190.765625 L 71.203125 181.757812 C 71.203125 181.4375 70.941406 181.179688 70.621094 181.179688 L 58.589844 181.179688 C 58.269531 181.179688 58.007812 181.4375 58.007812 181.757812 L 58.007812 190.765625 C 58.007812 191.085938 58.269531 191.34375 58.589844 191.34375 L 61.589844 191.34375 L 61.589844 196.640625 L 51.550781 196.640625 C 45.851562 190.800781 38.226562 187.585938 30.046875 187.585938 C 13.496094 187.585938 0.03125 201.007812 0.03125 217.503906 C 0.03125 234.003906 13.496094 247.425781 30.046875 247.425781 C 38.179688 247.425781 45.773438 244.238281 51.464844 238.460938 L 61.589844 238.460938 L 61.589844 243.757812 L 58.589844 243.757812 C 58.269531 243.757812 58.007812 244.015625 58.007812 244.335938 L 58.007812 253.34375 C 58.007812 253.664062 58.269531 253.921875 58.589844 253.921875 L 70.621094 253.921875 C 70.941406 253.921875 71.203125 253.664062 71.203125 253.34375 L 71.203125 244.335938 C 71.203125 244.015625 70.941406 243.757812 70.621094 243.757812 L 66.273438 243.757812 L 66.273438 191.34375 Z M 63.1875 197.796875 L 63.1875 201.992188 L 52.527344 201.992188 C 51.5 201.992188 50.660156 202.828125 50.660156 203.855469 L 50.660156 206.199219 C 50.660156 206.960938 50.039062 207.582031 49.273438 207.582031 L 40.09375 207.582031 L 40.09375 204.097656 L 45.089844 204.097656 C 46.132812 204.097656 46.984375 203.253906 46.984375 202.210938 L 46.984375 199.179688 C 46.984375 198.417969 47.605469 197.796875 48.367188 197.796875 Z M 65.113281 191.34375 L 65.113281 243.757812 L 62.75 243.757812 L 62.75 238.460938 L 63.765625 238.460938 C 64.085938 238.460938 64.347656 238.199219 64.347656 237.882812 L 64.347656 232.53125 C 64.347656 232.210938 64.085938 231.953125 63.765625 231.953125 L 62.75 231.953125 L 62.75 203.148438 L 63.765625 203.148438 C 64.085938 203.148438 64.347656 202.890625 64.347656 202.570312 L 64.347656 197.21875 C 64.347656 196.898438 64.085938 196.640625 63.765625 196.640625 L 62.75 196.640625 L 62.75 191.34375 Z M 63.289062 190.1875 L 63.289062 185.527344 L 64.574219 185.527344 L 64.574219 190.1875 Z M 64.574219 244.914062 L 64.574219 249.574219 L 63.289062 249.574219 L 63.289062 244.914062 Z M 49.882812 226.445312 C 51.164062 223.632812 51.820312 220.632812 51.820312 217.503906 C 51.820312 214.410156 51.175781 211.433594 49.917969 208.644531 C 51.007812 208.359375 51.820312 207.375 51.820312 206.199219 L 51.820312 203.855469 C 51.820312 203.464844 52.136719 203.148438 52.527344 203.148438 L 55.046875 203.148438 C 57.566406 207.496094 58.902344 212.453125 58.902344 217.503906 C 58.902344 222.59375 57.550781 227.582031 55 231.953125 L 52.527344 231.953125 C 52.136719 231.953125 51.820312 231.636719 51.820312 231.246094 L 51.820312 228.898438 C 51.820312 227.710938 50.992188 226.71875 49.882812 226.445312 Z M 36.074219 202.941406 C 35.753906 202.941406 35.492188 203.203125 35.492188 203.519531 L 35.492188 208.160156 C 35.492188 208.480469 35.753906 208.738281 36.074219 208.738281 L 38.085938 208.738281 L 36.367188 210.402344 C 34.816406 209.03125 32.824219 208.160156 30.625 208.027344 L 30.625 202.765625 C 30.625 202.445312 30.367188 202.1875 30.046875 202.1875 C 29.726562 202.1875 29.46875 202.445312 29.46875 202.765625 L 29.46875 208.027344 C 27.273438 208.160156 25.28125 209.03125 23.734375 210.398438 L 20 206.675781 C 19.773438 206.449219 19.40625 206.449219 19.179688 206.675781 C 18.953125 206.898438 18.953125 207.265625 19.179688 207.492188 L 22.914062 211.214844 C 21.542969 212.757812 20.671875 214.742188 20.539062 216.929688 L 15.257812 216.929688 C 14.9375 216.929688 14.679688 217.1875 14.679688 217.507812 C 14.679688 217.824219 14.9375 218.085938 15.257812 218.085938 L 20.539062 218.085938 C 20.671875 220.269531 21.542969 222.253906 22.914062 223.796875 L 19.179688 227.519531 C 18.953125 227.746094 18.953125 228.113281 19.179688 228.339844 C 19.292969 228.449219 19.441406 228.507812 19.589844 228.507812 C 19.738281 228.507812 19.886719 228.449219 20 228.339844 L 23.734375 224.617188 C 25.28125 225.984375 27.273438 226.851562 29.46875 226.984375 L 29.46875 232.246094 C 29.46875 232.566406 29.726562 232.824219 30.046875 232.824219 C 30.367188 232.824219 30.625 232.566406 30.625 232.246094 L 30.625 226.984375 C 32.820312 226.851562 34.8125 225.984375 36.359375 224.617188 L 38.113281 226.363281 L 36.074219 226.363281 C 35.753906 226.363281 35.492188 226.625 35.492188 226.941406 L 35.492188 231.582031 C 35.492188 231.902344 35.753906 232.160156 36.074219 232.160156 L 39.484375 232.160156 C 36.675781 233.96875 33.449219 234.925781 30.046875 234.925781 C 20.410156 234.925781 12.574219 227.109375 12.574219 217.507812 C 12.574219 207.902344 20.410156 200.089844 30.046875 200.089844 C 33.453125 200.089844 36.789062 201.097656 39.617188 202.941406 Z M 38.933594 204.097656 L 38.933594 207.582031 L 36.652344 207.582031 L 36.652344 204.097656 Z M 38.425781 217.503906 C 38.425781 222.109375 34.667969 225.859375 30.046875 225.859375 C 25.425781 225.859375 21.667969 222.109375 21.667969 217.503906 C 21.667969 212.898438 25.425781 209.152344 30.046875 209.152344 C 34.667969 209.152344 38.425781 212.898438 38.425781 217.503906 Z M 38.933594 227.519531 L 38.933594 231.003906 L 36.652344 231.003906 L 36.652344 227.519531 Z M 30.046875 198.933594 C 19.773438 198.933594 11.414062 207.261719 11.414062 217.503906 C 11.414062 227.746094 19.769531 236.078125 30.046875 236.078125 C 34.242188 236.078125 38.191406 234.71875 41.484375 232.160156 L 44.496094 232.160156 C 40.65625 235.917969 35.449219 238.054688 30.046875 238.054688 C 18.679688 238.054688 9.433594 228.835938 9.433594 217.503906 C 9.433594 206.175781 18.679688 196.957031 30.046875 196.957031 C 35.496094 196.957031 40.738281 199.128906 44.585938 202.941406 L 41.609375 202.941406 C 38.332031 200.355469 34.234375 198.933594 30.046875 198.933594 Z M 37.179688 223.796875 C 38.550781 222.253906 39.421875 220.269531 39.554688 218.082031 L 44.835938 218.082031 C 45.15625 218.082031 45.414062 217.824219 45.414062 217.503906 C 45.414062 217.1875 45.15625 216.925781 44.835938 216.925781 L 39.554688 216.925781 C 39.421875 214.746094 38.550781 212.761719 37.183594 211.21875 L 39.75 208.738281 L 45.140625 208.738281 C 46.695312 211.390625 47.523438 214.414062 47.523438 217.503906 C 47.523438 220.632812 46.675781 223.6875 45.085938 226.363281 L 39.753906 226.363281 Z M 48.679688 217.503906 C 48.679688 214.433594 47.914062 211.425781 46.46875 208.738281 L 48.6875 208.738281 C 49.992188 211.488281 50.660156 214.433594 50.660156 217.503906 C 50.660156 220.613281 49.976562 223.589844 48.644531 226.363281 L 46.421875 226.363281 C 47.898438 223.652344 48.679688 220.613281 48.679688 217.503906 Z M 60.0625 217.503906 C 60.0625 212.472656 58.792969 207.53125 56.386719 203.148438 L 61.589844 203.148438 L 61.589844 231.953125 L 56.335938 231.953125 C 58.777344 227.546875 60.0625 222.574219 60.0625 217.503906 Z M 30.046875 246.269531 C 14.136719 246.269531 1.191406 233.367188 1.191406 217.503906 C 1.191406 201.644531 14.136719 188.742188 30.046875 188.742188 C 37.527344 188.742188 44.527344 191.539062 49.90625 196.640625 L 48.367188 196.640625 C 46.964844 196.640625 45.824219 197.777344 45.824219 199.179688 L 45.824219 202.210938 C 45.824219 202.3125 45.800781 202.410156 45.765625 202.5 C 41.667969 198.238281 35.976562 195.800781 30.046875 195.800781 C 18.039062 195.800781 8.273438 205.539062 8.273438 217.503906 C 8.273438 229.472656 18.039062 239.210938 30.046875 239.210938 C 35.957031 239.210938 41.636719 236.785156 45.730469 232.550781 C 45.785156 232.652344 45.824219 232.765625 45.824219 232.890625 L 45.824219 235.921875 C 45.824219 237.324219 46.964844 238.460938 48.367188 238.460938 L 49.8125 238.460938 C 44.445312 243.503906 37.480469 246.269531 30.046875 246.269531 Z M 51.261719 237.304688 C 51.238281 237.304688 51.214844 237.300781 51.191406 237.304688 L 48.371094 237.304688 C 47.605469 237.304688 46.984375 236.683594 46.984375 235.921875 L 46.984375 232.886719 C 46.984375 231.847656 46.136719 231.003906 45.09375 231.003906 L 40.09375 231.003906 L 40.09375 227.519531 L 45.421875 227.519531 C 45.421875 227.519531 45.425781 227.519531 45.425781 227.519531 L 49.011719 227.519531 C 49.011719 227.519531 49.011719 227.519531 49.015625 227.519531 L 49.277344 227.519531 C 50.039062 227.519531 50.660156 228.136719 50.660156 228.898438 L 50.660156 231.246094 C 50.660156 232.273438 51.5 233.109375 52.53125 233.109375 L 63.1875 233.109375 L 63.1875 237.304688 Z M 70.042969 244.914062 L 70.042969 252.765625 L 59.167969 252.765625 L 59.167969 244.914062 L 62.128906 244.914062 L 62.128906 250.152344 C 62.128906 250.472656 62.386719 250.730469 62.707031 250.730469 L 65.152344 250.730469 C 65.472656 250.730469 65.734375 250.472656 65.734375 250.152344 L 65.734375 244.914062 Z M 65.734375 190.1875 L 65.734375 184.949219 C 65.734375 184.628906 65.472656 184.371094 65.152344 184.371094 L 62.707031 184.371094 C 62.386719 184.371094 62.128906 184.628906 62.128906 184.949219 L 62.128906 190.1875 L 59.167969 190.1875 L 59.167969 182.335938 L 70.042969 182.335938 L 70.042969 190.1875 Z M 65.734375 190.1875 " fill-opacity="1" fill-rule="nonzero"/></g><path fill="#000000" d="M 68.535156 187.78125 C 68.535156 187.957031 68.472656 188.105469 68.347656 188.230469 C 68.222656 188.355469 68.074219 188.417969 67.894531 188.417969 C 67.71875 188.417969 67.570312 188.355469 67.445312 188.230469 C 67.320312 188.105469 67.257812 187.957031 67.257812 187.78125 C 67.257812 187.605469 67.320312 187.457031 67.445312 187.332031 C 67.570312 187.207031 67.71875 187.144531 67.894531 187.144531 C 68.074219 187.144531 68.222656 187.207031 68.347656 187.332031 C 68.472656 187.457031 68.535156 187.605469 68.535156 187.78125 Z M 68.535156 187.78125 " fill-opacity="1" fill-rule="nonzero"/><path fill="#000000" d="M 67.894531 184.214844 C 67.542969 184.214844 67.257812 184.5 67.257812 184.851562 C 67.257812 185.203125 67.542969 185.488281 67.894531 185.488281 C 68.25 185.488281 68.535156 185.203125 68.535156 184.851562 C 68.535156 184.5 68.25 184.214844 67.894531 184.214844 Z M 67.894531 184.214844 " fill-opacity="1" fill-rule="nonzero"/><g fill="#ffc107" fill-opacity="1"><g transform="translate(71.260634, 232.896664)"><g><path d="M 5.023438 0.136719 C 7.066406 0.136719 8.675781 -1.089844 9.167969 -3.042969 L 8.070312 -3.042969 C 7.609375 -1.71875 6.484375 -0.929688 5.023438 -0.929688 C 3.09375 -0.929688 1.695312 -2.328125 1.695312 -4.320312 C 1.695312 -6.3125 3.09375 -7.734375 5.023438 -7.734375 C 6.449219 -7.734375 7.5625 -6.980469 8.019531 -5.730469 L 9.132812 -5.730469 C 8.636719 -7.597656 7.027344 -8.785156 5.023438 -8.785156 C 2.449219 -8.785156 0.582031 -6.917969 0.582031 -4.320312 C 0.582031 -1.734375 2.449219 0.136719 5.023438 0.136719 Z M 5.023438 0.136719 "/></g></g></g><g fill="#ffc107" fill-opacity="1"><g transform="translate(82.819524, 232.896664)"><g><path d="M 2.265625 -1.039062 L 2.265625 -3.949219 L 5.753906 -3.949219 L 5.753906 -4.949219 L 2.265625 -4.949219 L 2.265625 -7.621094 L 6.074219 -7.621094 L 6.074219 -8.664062 L 1.175781 -8.664062 L 1.175781 0 L 6.210938 0 L 6.210938 -1.039062 Z M 2.265625 -1.039062 "/></g></g></g><g fill="#ffc107" fill-opacity="1"><g transform="translate(91.618785, 232.896664)"><g><path d="M 6.226562 0 L 7.449219 0 L 5.371094 -3.515625 C 6.507812 -3.835938 7.289062 -4.789062 7.289062 -6.015625 C 7.289062 -7.546875 6.089844 -8.664062 4.46875 -8.664062 L 1.175781 -8.664062 L 1.175781 0 L 2.265625 0 L 2.265625 -3.378906 L 4.230469 -3.378906 Z M 2.265625 -7.621094 L 4.40625 -7.621094 C 5.46875 -7.621094 6.175781 -6.941406 6.175781 -6.015625 C 6.175781 -5.085938 5.46875 -4.417969 4.40625 -4.417969 L 2.265625 -4.417969 Z M 2.265625 -7.621094 "/></g></g></g><g fill="#ffc107" fill-opacity="1"><g transform="translate(101.544168, 232.896664)"><g><path d="M 6.609375 -8.664062 L 0.261719 -8.664062 L 0.261719 -7.636719 L 2.894531 -7.636719 L 2.894531 0 L 3.972656 0 L 3.972656 -7.636719 L 6.609375 -7.636719 Z M 6.609375 -8.664062 "/></g></g></g><g fill="#ffc107" fill-opacity="1"><g transform="translate(110.380554, 232.896664)"><g><path d="M 1.175781 0 L 2.265625 0 L 2.265625 -8.664062 L 1.175781 -8.664062 Z M 1.175781 0 "/></g></g></g><g fill="#ffc107" fill-opacity="1"><g transform="translate(115.789069, 232.896664)"><g><path d="M 6.039062 -7.621094 L 6.039062 -8.664062 L 1.175781 -8.664062 L 1.175781 0 L 2.265625 0 L 2.265625 -3.761719 L 5.71875 -3.761719 L 5.71875 -4.765625 L 2.265625 -4.765625 L 2.265625 -7.621094 Z M 6.039062 -7.621094 "/></g></g></g><g fill="#ffc107" fill-opacity="1"><g transform="translate(124.217084, 232.896664)"><g><path d="M 1.175781 0 L 2.265625 0 L 2.265625 -8.664062 L 1.175781 -8.664062 Z M 1.175781 0 "/></g></g></g><g fill="#ffc107" fill-opacity="1"><g transform="translate(129.625602, 232.896664)"><g><path d="M 5.023438 0.136719 C 7.066406 0.136719 8.675781 -1.089844 9.167969 -3.042969 L 8.070312 -3.042969 C 7.609375 -1.71875 6.484375 -0.929688 5.023438 -0.929688 C 3.09375 -0.929688 1.695312 -2.328125 1.695312 -4.320312 C 1.695312 -6.3125 3.09375 -7.734375 5.023438 -7.734375 C 6.449219 -7.734375 7.5625 -6.980469 8.019531 -5.730469 L 9.132812 -5.730469 C 8.636719 -7.597656 7.027344 -8.785156 5.023438 -8.785156 C 2.449219 -8.785156 0.582031 -6.917969 0.582031 -4.320312 C 0.582031 -1.734375 2.449219 0.136719 5.023438 0.136719 Z M 5.023438 0.136719 "/></g></g></g><g fill="#ffc107" fill-opacity="1"><g transform="translate(141.184488, 232.896664)"><g><path d="M 7.226562 0 L 8.402344 0 L 4.765625 -8.664062 L 3.75 -8.664062 L 0.210938 0 L 1.359375 0 L 2.203125 -2.066406 L 6.375 -2.066406 Z M 4.269531 -7.164062 L 5.964844 -3.070312 L 2.609375 -3.070312 Z M 4.269531 -7.164062 "/></g></g></g><g fill="#ffc107" fill-opacity="1"><g transform="translate(151.765752, 232.896664)"><g><path d="M 6.609375 -8.664062 L 0.261719 -8.664062 L 0.261719 -7.636719 L 2.894531 -7.636719 L 2.894531 0 L 3.972656 0 L 3.972656 -7.636719 L 6.609375 -7.636719 Z M 6.609375 -8.664062 "/></g></g></g><g fill="#ffc107" fill-opacity="1"><g transform="translate(160.602135, 232.896664)"><g><path d="M 2.265625 -1.039062 L 2.265625 -3.949219 L 5.753906 -3.949219 L 5.753906 -4.949219 L 2.265625 -4.949219 L 2.265625 -7.621094 L 6.074219 -7.621094 L 6.074219 -8.664062 L 1.175781 -8.664062 L 1.175781 0 L 6.210938 0 L 6.210938 -1.039062 Z M 2.265625 -1.039062 "/></g></g></g><g fill="#ffc107" fill-opacity="1"><g transform="translate(169.401394, 232.896664)"><g/></g></g><g fill="#ffc107" fill-opacity="1"><g transform="translate(174.599529, 232.896664)"><g><path d="M 4.679688 -4.292969 L 4.679688 -3.265625 L 8.128906 -3.265625 C 7.820312 -1.855469 6.570312 -0.914062 4.988281 -0.914062 C 3.03125 -0.914062 1.695312 -2.3125 1.695312 -4.320312 C 1.695312 -6.3125 3.070312 -7.722656 4.988281 -7.722656 C 6.449219 -7.722656 7.683594 -6.894531 8.054688 -5.628906 L 9.183594 -5.628906 C 8.796875 -7.488281 7.042969 -8.785156 4.960938 -8.785156 C 2.4375 -8.785156 0.59375 -6.894531 0.59375 -4.320312 C 0.59375 -1.746094 2.4375 0.148438 4.988281 0.148438 C 7.488281 0.148438 9.269531 -1.683594 9.320312 -4.292969 Z M 4.679688 -4.292969 "/></g></g></g><g fill="#ffc107" fill-opacity="1"><g transform="translate(186.430659, 232.896664)"><g><path d="M 2.265625 -1.039062 L 2.265625 -3.949219 L 5.753906 -3.949219 L 5.753906 -4.949219 L 2.265625 -4.949219 L 2.265625 -7.621094 L 6.074219 -7.621094 L 6.074219 -8.664062 L 1.175781 -8.664062 L 1.175781 0 L 6.210938 0 L 6.210938 -1.039062 Z M 2.265625 -1.039062 "/></g></g></g><g fill="#ffc107" fill-opacity="1"><g transform="translate(195.229918, 232.896664)"><g><path d="M 7.015625 -8.664062 L 7.015625 -1.980469 L 2.164062 -8.664062 L 1.175781 -8.664062 L 1.175781 0 L 2.238281 0 L 2.238281 -6.757812 L 7.164062 0 L 8.082031 0 L 8.082031 -8.664062 Z M 7.015625 -8.664062 "/></g></g></g><g fill="#ffc107" fill-opacity="1"><g transform="translate(206.454671, 232.896664)"><g><path d="M 2.265625 -1.039062 L 2.265625 -3.949219 L 5.753906 -3.949219 L 5.753906 -4.949219 L 2.265625 -4.949219 L 2.265625 -7.621094 L 6.074219 -7.621094 L 6.074219 -8.664062 L 1.175781 -8.664062 L 1.175781 0 L 6.210938 0 L 6.210938 -1.039062 Z M 2.265625 -1.039062 "/></g></g></g><g fill="#ffc107" fill-opacity="1"><g transform="translate(215.25393, 232.896664)"><g><path d="M 6.226562 0 L 7.449219 0 L 5.371094 -3.515625 C 6.507812 -3.835938 7.289062 -4.789062 7.289062 -6.015625 C 7.289062 -7.546875 6.089844 -8.664062 4.46875 -8.664062 L 1.175781 -8.664062 L 1.175781 0 L 2.265625 0 L 2.265625 -3.378906 L 4.230469 -3.378906 Z M 2.265625 -7.621094 L 4.40625 -7.621094 C 5.46875 -7.621094 6.175781 -6.941406 6.175781 -6.015625 C 6.175781 -5.085938 5.46875 -4.417969 4.40625 -4.417969 L 2.265625 -4.417969 Z M 2.265625 -7.621094 "/></g></g></g><g fill="#ffc107" fill-opacity="1"><g transform="translate(225.17931, 232.896664)"><g><path d="M 7.226562 0 L 8.402344 0 L 4.765625 -8.664062 L 3.75 -8.664062 L 0.210938 0 L 1.359375 0 L 2.203125 -2.066406 L 6.375 -2.066406 Z M 4.269531 -7.164062 L 5.964844 -3.070312 L 2.609375 -3.070312 Z M 4.269531 -7.164062 "/></g></g></g><g fill="#ffc107" fill-opacity="1"><g transform="translate(235.760574, 232.896664)"><g><path d="M 6.609375 -8.664062 L 0.261719 -8.664062 L 0.261719 -7.636719 L 2.894531 -7.636719 L 2.894531 0 L 3.972656 0 L 3.972656 -7.636719 L 6.609375 -7.636719 Z M 6.609375 -8.664062 "/></g></g></g><g fill="#ffc107" fill-opacity="1"><g transform="translate(244.596957, 232.896664)"><g><path d="M 1.175781 0 L 2.265625 0 L 2.265625 -8.664062 L 1.175781 -8.664062 Z M 1.175781 0 "/></g></g></g><g fill="#ffc107" fill-opacity="1"><g transform="translate(250.005469, 232.896664)"><g><path d="M 5.125 0.148438 C 7.746094 0.148438 9.652344 -1.769531 9.652344 -4.320312 C 9.652344 -6.878906 7.746094 -8.796875 5.125 -8.796875 C 2.5 -8.796875 0.582031 -6.878906 0.582031 -4.320312 C 0.582031 -1.769531 2.5 0.148438 5.125 0.148438 Z M 5.125 -0.914062 C 3.15625 -0.914062 1.695312 -2.386719 1.695312 -4.320312 C 1.695312 -6.261719 3.15625 -7.734375 5.125 -7.734375 C 7.089844 -7.734375 8.550781 -6.273438 8.550781 -4.320312 C 8.550781 -2.375 7.089844 -0.914062 5.125 -0.914062 Z M 5.125 -0.914062 "/></g></g></g><g fill="#ffc107" fill-opacity="1"><g transform="translate(262.220228, 232.896664)"><g><path d="M 7.015625 -8.664062 L 7.015625 -1.980469 L 2.164062 -8.664062 L 1.175781 -8.664062 L 1.175781 0 L 2.238281 0 L 2.238281 -6.757812 L 7.164062 0 L 8.082031 0 L 8.082031 -8.664062 Z M 7.015625 -8.664062 "/></g></g></g><g fill="#ffc107" fill-opacity="1"><g transform="translate(273.444993, 232.896664)"><g/></g></g><g fill="#ffc107" fill-opacity="1"><g transform="translate(278.643128, 232.896664)"><g><path d="M 7.226562 0 L 8.402344 0 L 4.765625 -8.664062 L 3.75 -8.664062 L 0.210938 0 L 1.359375 0 L 2.203125 -2.066406 L 6.375 -2.066406 Z M 4.269531 -7.164062 L 5.964844 -3.070312 L 2.609375 -3.070312 Z M 4.269531 -7.164062 "/></g></g></g><g fill="#ffc107" fill-opacity="1"><g transform="translate(289.224403, 232.896664)"><g><path d="M 7.015625 -8.664062 L 7.015625 -1.980469 L 2.164062 -8.664062 L 1.175781 -8.664062 L 1.175781 0 L 2.238281 0 L 2.238281 -6.757812 L 7.164062 0 L 8.082031 0 L 8.082031 -8.664062 Z M 7.015625 -8.664062 "/></g></g></g><g fill="#ffc107" fill-opacity="1"><g transform="translate(300.449157, 232.896664)"><g><path d="M 4.058594 -8.664062 L 1.175781 -8.664062 L 1.175781 0 L 4.058594 0 C 6.609375 0 8.453125 -1.820312 8.453125 -4.332031 C 8.453125 -6.832031 6.609375 -8.648438 4.058594 -8.648438 Z M 4.035156 -1.015625 L 2.265625 -1.015625 L 2.265625 -7.636719 L 4.035156 -7.636719 C 5.976562 -7.636719 7.351562 -6.238281 7.351562 -4.332031 C 7.351562 -2.414062 5.976562 -1.015625 4.035156 -1.015625 Z M 4.035156 -1.015625 "/></g></g></g><g fill="#ffc107" fill-opacity="1"><g transform="translate(71.260634, 244.896663)"><g><path d="M 6.980469 -8.664062 L 4.21875 -1.621094 L 1.421875 -8.664062 L 0.222656 -8.664062 L 3.726562 0 L 4.726562 0 L 8.167969 -8.664062 Z M 6.980469 -8.664062 "/></g></g></g><g fill="#ffc107" fill-opacity="1"><g transform="translate(81.656266, 244.896663)"><g><path d="M 7.226562 0 L 8.402344 0 L 4.765625 -8.664062 L 3.75 -8.664062 L 0.210938 0 L 1.359375 0 L 2.203125 -2.066406 L 6.375 -2.066406 Z M 4.269531 -7.164062 L 5.964844 -3.070312 L 2.609375 -3.070312 Z M 4.269531 -7.164062 "/></g></g></g><g fill="#ffc107" fill-opacity="1"><g transform="translate(92.237533, 244.896663)"><g><path d="M 2.265625 -1.015625 L 2.265625 -8.664062 L 1.175781 -8.664062 L 1.175781 0 L 6.0625 0 L 6.0625 -1.015625 Z M 2.265625 -1.015625 "/></g></g></g><g fill="#ffc107" fill-opacity="1"><g transform="translate(100.529421, 244.896663)"><g><path d="M 1.175781 0 L 2.265625 0 L 2.265625 -8.664062 L 1.175781 -8.664062 Z M 1.175781 0 "/></g></g></g><g fill="#ffc107" fill-opacity="1"><g transform="translate(105.937935, 244.896663)"><g><path d="M 4.058594 -8.664062 L 1.175781 -8.664062 L 1.175781 0 L 4.058594 0 C 6.609375 0 8.453125 -1.820312 8.453125 -4.332031 C 8.453125 -6.832031 6.609375 -8.648438 4.058594 -8.648438 Z M 4.035156 -1.015625 L 2.265625 -1.015625 L 2.265625 -7.636719 L 4.035156 -7.636719 C 5.976562 -7.636719 7.351562 -6.238281 7.351562 -4.332031 C 7.351562 -2.414062 5.976562 -1.015625 4.035156 -1.015625 Z M 4.035156 -1.015625 "/></g></g></g><g fill="#ffc107" fill-opacity="1"><g transform="translate(116.964698, 244.896663)"><g><path d="M 7.226562 0 L 8.402344 0 L 4.765625 -8.664062 L 3.75 -8.664062 L 0.210938 0 L 1.359375 0 L 2.203125 -2.066406 L 6.375 -2.066406 Z M 4.269531 -7.164062 L 5.964844 -3.070312 L 2.609375 -3.070312 Z M 4.269531 -7.164062 "/></g></g></g><g fill="#ffc107" fill-opacity="1"><g transform="translate(127.545964, 244.896663)"><g><path d="M 6.609375 -8.664062 L 0.261719 -8.664062 L 0.261719 -7.636719 L 2.894531 -7.636719 L 2.894531 0 L 3.972656 0 L 3.972656 -7.636719 L 6.609375 -7.636719 Z M 6.609375 -8.664062 "/></g></g></g><g fill="#ffc107" fill-opacity="1"><g transform="translate(136.382353, 244.896663)"><g><path d="M 1.175781 0 L 2.265625 0 L 2.265625 -8.664062 L 1.175781 -8.664062 Z M 1.175781 0 "/></g></g></g><g fill="#ffc107" fill-opacity="1"><g transform="translate(141.790865, 244.896663)"><g><path d="M 5.125 0.148438 C 7.746094 0.148438 9.652344 -1.769531 9.652344 -4.320312 C 9.652344 -6.878906 7.746094 -8.796875 5.125 -8.796875 C 2.5 -8.796875 0.582031 -6.878906 0.582031 -4.320312 C 0.582031 -1.769531 2.5 0.148438 5.125 0.148438 Z M 5.125 -0.914062 C 3.15625 -0.914062 1.695312 -2.386719 1.695312 -4.320312 C 1.695312 -6.261719 3.15625 -7.734375 5.125 -7.734375 C 7.089844 -7.734375 8.550781 -6.273438 8.550781 -4.320312 C 8.550781 -2.375 7.089844 -0.914062 5.125 -0.914062 Z M 5.125 -0.914062 "/></g></g></g><g fill="#ffc107" fill-opacity="1"><g transform="translate(154.005624, 244.896663)"><g><path d="M 7.015625 -8.664062 L 7.015625 -1.980469 L 2.164062 -8.664062 L 1.175781 -8.664062 L 1.175781 0 L 2.238281 0 L 2.238281 -6.757812 L 7.164062 0 L 8.082031 0 L 8.082031 -8.664062 Z M 7.015625 -8.664062 "/></g></g></g><g fill="#ffc107" fill-opacity="1"><g transform="translate(165.230378, 244.896663)"><g/></g></g><g fill="#ffc107" fill-opacity="1"><g transform="translate(170.428513, 244.896663)"><g><path d="M 4.28125 -8.664062 L 1.175781 -8.664062 L 1.175781 0 L 2.265625 0 L 2.265625 -3.105469 L 4.28125 -3.105469 C 5.925781 -3.105469 7.152344 -4.292969 7.152344 -5.878906 C 7.152344 -7.472656 5.914062 -8.664062 4.28125 -8.664062 Z M 4.230469 -4.15625 L 2.265625 -4.15625 L 2.265625 -7.609375 L 4.230469 -7.609375 C 5.285156 -7.609375 6.050781 -6.867188 6.050781 -5.878906 C 6.050781 -4.886719 5.285156 -4.15625 4.230469 -4.15625 Z M 4.230469 -4.15625 "/></g></g></g><g fill="#ffc107" fill-opacity="1"><g transform="translate(179.933151, 244.896663)"><g><path d="M 2.265625 -1.015625 L 2.265625 -8.664062 L 1.175781 -8.664062 L 1.175781 0 L 6.0625 0 L 6.0625 -1.015625 Z M 2.265625 -1.015625 "/></g></g></g><g fill="#ffc107" fill-opacity="1"><g transform="translate(188.225036, 244.896663)"><g><path d="M 7.226562 0 L 8.402344 0 L 4.765625 -8.664062 L 3.75 -8.664062 L 0.210938 0 L 1.359375 0 L 2.203125 -2.066406 L 6.375 -2.066406 Z M 4.269531 -7.164062 L 5.964844 -3.070312 L 2.609375 -3.070312 Z M 4.269531 -7.164062 "/></g></g></g><g fill="#ffc107" fill-opacity="1"><g transform="translate(198.806299, 244.896663)"><g><path d="M 6.609375 -8.664062 L 0.261719 -8.664062 L 0.261719 -7.636719 L 2.894531 -7.636719 L 2.894531 0 L 3.972656 0 L 3.972656 -7.636719 L 6.609375 -7.636719 Z M 6.609375 -8.664062 "/></g></g></g><g fill="#ffc107" fill-opacity="1"><g transform="translate(207.642683, 244.896663)"><g><path d="M 6.039062 -7.621094 L 6.039062 -8.664062 L 1.175781 -8.664062 L 1.175781 0 L 2.265625 0 L 2.265625 -3.761719 L 5.71875 -3.761719 L 5.71875 -4.765625 L 2.265625 -4.765625 L 2.265625 -7.621094 Z M 6.039062 -7.621094 "/></g></g></g><g fill="#ffc107" fill-opacity="1"><g transform="translate(216.070695, 244.896663)"><g><path d="M 5.125 0.148438 C 7.746094 0.148438 9.652344 -1.769531 9.652344 -4.320312 C 9.652344 -6.878906 7.746094 -8.796875 5.125 -8.796875 C 2.5 -8.796875 0.582031 -6.878906 0.582031 -4.320312 C 0.582031 -1.769531 2.5 0.148438 5.125 0.148438 Z M 5.125 -0.914062 C 3.15625 -0.914062 1.695312 -2.386719 1.695312 -4.320312 C 1.695312 -6.261719 3.15625 -7.734375 5.125 -7.734375 C 7.089844 -7.734375 8.550781 -6.273438 8.550781 -4.320312 C 8.550781 -2.375 7.089844 -0.914062 5.125 -0.914062 Z M 5.125 -0.914062 "/></g></g></g><g fill="#ffc107" fill-opacity="1"><g transform="translate(228.285454, 244.896663)"><g><path d="M 6.226562 0 L 7.449219 0 L 5.371094 -3.515625 C 6.507812 -3.835938 7.289062 -4.789062 7.289062 -6.015625 C 7.289062 -7.546875 6.089844 -8.664062 4.46875 -8.664062 L 1.175781 -8.664062 L 1.175781 0 L 2.265625 0 L 2.265625 -3.378906 L 4.230469 -3.378906 Z M 2.265625 -7.621094 L 4.40625 -7.621094 C 5.46875 -7.621094 6.175781 -6.941406 6.175781 -6.015625 C 6.175781 -5.085938 5.46875 -4.417969 4.40625 -4.417969 L 2.265625 -4.417969 Z M 2.265625 -7.621094 "/></g></g></g><g fill="#ffc107" fill-opacity="1"><g transform="translate(238.210834, 244.896663)"><g><path d="M 11.285156 0 L 9.851562 -8.664062 L 8.773438 -8.664062 L 5.902344 -2.300781 L 3.042969 -8.664062 L 1.992188 -8.664062 L 0.53125 0 L 1.644531 0 L 2.785156 -6.757812 L 5.765625 -0.210938 L 6.0625 -0.210938 L 9.046875 -6.757812 L 10.171875 0 Z M 11.285156 0 "/></g></g></g><g fill="#ffc107" fill-opacity="1"><g transform="translate(252.009593, 244.896663)"><g/></g></g><g fill="#ffc107" fill-opacity="1"><g transform="translate(257.207728, 244.896663)"><g><path d="M 11.261719 -8.664062 L 9.15625 -1.769531 L 6.546875 -8.488281 L 6.113281 -8.488281 L 3.578125 -1.769531 L 1.421875 -8.664062 L 0.273438 -8.664062 L 3.054688 0 L 4.007812 0 L 6.335938 -6.148438 L 8.722656 0 L 9.675781 0 L 12.414062 -8.664062 Z M 11.261719 -8.664062 "/></g></g></g><g fill="#ffc107" fill-opacity="1"><g transform="translate(271.872735, 244.896663)"><g><path d="M 1.175781 0 L 2.265625 0 L 2.265625 -8.664062 L 1.175781 -8.664062 Z M 1.175781 0 "/></g></g></g><g fill="#ffc107" fill-opacity="1"><g transform="translate(277.281259, 244.896663)"><g><path d="M 6.609375 -8.664062 L 0.261719 -8.664062 L 0.261719 -7.636719 L 2.894531 -7.636719 L 2.894531 0 L 3.972656 0 L 3.972656 -7.636719 L 6.609375 -7.636719 Z M 6.609375 -8.664062 "/></g></g></g><g fill="#ffc107" fill-opacity="1"><g transform="translate(286.117653, 244.896663)"><g><path d="M 6.746094 -8.664062 L 6.746094 -4.976562 L 2.265625 -4.976562 L 2.265625 -8.664062 L 1.175781 -8.664062 L 1.175781 0 L 2.265625 0 L 2.265625 -3.933594 L 6.746094 -3.933594 L 6.746094 0 L 7.832031 0 L 7.832031 -8.664062 Z M 6.746094 -8.664062 "/></g></g></g><g fill="#ffc107" fill-opacity="1"><g transform="translate(297.094917, 244.896663)"><g/></g></g><g fill="#ffc107" fill-opacity="1"><g transform="translate(302.293052, 244.896663)"><g><path d="M 2.265625 -1.039062 L 2.265625 -3.949219 L 5.753906 -3.949219 L 5.753906 -4.949219 L 2.265625 -4.949219 L 2.265625 -7.621094 L 6.074219 -7.621094 L 6.074219 -8.664062 L 1.175781 -8.664062 L 1.175781 0 L 6.210938 0 L 6.210938 -1.039062 Z M 2.265625 -1.039062 "/></g></g></g><g fill="#ffc107" fill-opacity="1"><g transform="translate(311.092322, 244.896663)"><g><path d="M 0.839844 -2.945312 L 4.777344 -2.945312 L 4.777344 -3.960938 L 0.839844 -3.960938 Z M 0.839844 -2.945312 "/></g></g></g><g fill="#ffc107" fill-opacity="1"><g transform="translate(318.678839, 244.896663)"><g><path d="M 6.980469 -8.664062 L 4.21875 -1.621094 L 1.421875 -8.664062 L 0.222656 -8.664062 L 3.726562 0 L 4.726562 0 L 8.167969 -8.664062 Z M 6.980469 -8.664062 "/></g></g></g><g fill="#ffc107" fill-opacity="1"><g transform="translate(329.074468, 244.896663)"><g><path d="M 7.226562 0 L 8.402344 0 L 4.765625 -8.664062 L 3.75 -8.664062 L 0.210938 0 L 1.359375 0 L 2.203125 -2.066406 L 6.375 -2.066406 Z M 4.269531 -7.164062 L 5.964844 -3.070312 L 2.609375 -3.070312 Z M 4.269531 -7.164062 "/></g></g></g><g fill="#ffc107" fill-opacity="1"><g transform="translate(339.655743, 244.896663)"><g><path d="M 4.480469 0.148438 C 6.421875 0.148438 7.871094 -1.25 7.871094 -3.21875 L 7.871094 -8.664062 L 6.78125 -8.664062 L 6.78125 -3.304688 C 6.78125 -1.867188 5.816406 -0.914062 4.480469 -0.914062 C 3.132812 -0.914062 2.179688 -1.867188 2.179688 -3.304688 L 2.179688 -8.664062 L 1.078125 -8.664062 L 1.078125 -3.21875 C 1.078125 -1.25 2.523438 0.148438 4.480469 0.148438 Z M 4.480469 0.148438 "/></g></g></g><g fill="#ffc107" fill-opacity="1"><g transform="translate(350.57114, 244.896663)"><g><path d="M 2.265625 -1.015625 L 2.265625 -8.664062 L 1.175781 -8.664062 L 1.175781 0 L 6.0625 0 L 6.0625 -1.015625 Z M 2.265625 -1.015625 "/></g></g></g><g fill="#ffc107" fill-opacity="1"><g transform="translate(358.863025, 244.896663)"><g><path d="M 6.609375 -8.664062 L 0.261719 -8.664062 L 0.261719 -7.636719 L 2.894531 -7.636719 L 2.894531 0 L 3.972656 0 L 3.972656 -7.636719 L 6.609375 -7.636719 Z M 6.609375 -8.664062 "/></g></g></g></svg>