<svg xmlns="http://www.w3.org/2000/svg" xmlns:xlink="http://www.w3.org/1999/xlink" width="500" zoomAndPan="magnify" viewBox="0 0 375 374.999991" height="500" preserveAspectRatio="xMidYMid meet" version="1.0"><defs><clipPath id="e3b6d665c1"><path d="M 190 170.132812 L 209.421875 170.132812 L 209.421875 180 L 190 180 Z M 190 170.132812 " clip-rule="nonzero"/></clipPath><clipPath id="e08ee4e8e4"><path d="M 165.921875 173 L 209.421875 173 L 209.421875 204.632812 L 165.921875 204.632812 Z M 165.921875 173 " clip-rule="nonzero"/></clipPath></defs><rect x="-37.5" width="450" fill="#ffffff" y="-37.499999" height="449.999989" fill-opacity="1"/><rect x="-37.5" width="450" fill="#ffffff" y="-37.499999" height="449.999989" fill-opacity="1"/><g clip-path="url(#e3b6d665c1)"><path fill="#f4f6fc" d="M 190.128906 177.5 L 190.128906 179.605469 L 200.652344 179.605469 C 200.9375 179.605469 201.199219 179.488281 201.398438 179.300781 L 204.566406 176.132812 C 204.976562 176.332031 205.429688 176.449219 205.925781 176.449219 C 207.660156 176.449219 209.082031 175.027344 209.082031 173.289062 C 209.082031 171.554688 207.660156 170.132812 205.925781 170.132812 C 204.1875 170.132812 202.769531 171.554688 202.769531 173.289062 C 202.769531 173.773438 202.882812 174.226562 203.085938 174.648438 L 200.230469 177.5 Z M 190.128906 177.5 " fill-opacity="1" fill-rule="nonzero"/></g><path fill="#f4f6fc" d="M 183.816406 177.5 C 182.078125 177.5 180.65625 178.921875 180.65625 180.65625 C 180.65625 182.394531 182.078125 183.816406 183.816406 183.816406 C 185.550781 183.816406 186.972656 182.394531 186.972656 180.65625 C 186.972656 180.070312 186.804688 179.53125 186.519531 179.058594 L 189.570312 175.394531 L 195.390625 175.394531 L 195.390625 173.289062 L 189.078125 173.289062 C 188.761719 173.289062 188.464844 173.425781 188.265625 173.667969 L 184.910156 177.710938 C 184.5625 177.585938 184.203125 177.5 183.816406 177.5 Z M 183.816406 177.5 " fill-opacity="1" fill-rule="nonzero"/><g clip-path="url(#e08ee4e8e4)"><path fill="#f4f6fc" d="M 166.976562 200.652344 L 190.128906 200.652344 C 190.707031 200.652344 191.179688 200.179688 191.179688 199.601562 L 191.179688 197.496094 L 200.222656 197.496094 L 203.074219 200.347656 C 202.875 200.757812 202.757812 201.210938 202.757812 201.707031 C 202.757812 203.441406 204.179688 204.863281 205.914062 204.863281 C 207.652344 204.863281 209.070312 203.441406 209.070312 201.707031 C 209.070312 199.96875 207.652344 198.546875 205.914062 198.546875 C 205.429688 198.546875 204.976562 198.664062 204.558594 198.863281 L 201.390625 195.695312 C 201.191406 195.496094 200.925781 195.390625 200.640625 195.390625 L 191.171875 195.390625 L 191.171875 191.183594 L 195.570312 191.183594 C 196 192.402344 197.160156 193.285156 198.539062 193.285156 C 200.273438 193.285156 201.695312 191.867188 201.695312 190.128906 C 201.695312 188.394531 200.273438 186.972656 198.539062 186.972656 C 197.167969 186.972656 196.011719 187.855469 195.570312 189.078125 L 191.171875 189.078125 L 191.171875 187.402344 L 194.757812 183.816406 L 201.882812 183.816406 C 202.316406 185.035156 203.472656 185.917969 204.851562 185.917969 C 206.589844 185.917969 208.007812 184.5 208.007812 182.761719 C 208.007812 181.027344 206.589844 179.605469 204.851562 179.605469 C 203.484375 179.605469 202.328125 180.488281 201.882812 181.710938 L 194.328125 181.710938 C 194.042969 181.710938 193.78125 181.824219 193.582031 182.015625 L 189.371094 186.226562 C 189.183594 186.425781 189.066406 186.6875 189.066406 186.972656 L 189.066406 196.886719 L 183.488281 191.308594 C 183.089844 190.898438 182.414062 190.898438 182.015625 191.308594 L 174.773438 198.546875 L 171.785156 198.546875 L 180.519531 189.8125 C 180.785156 189.550781 181.078125 189.351562 181.394531 189.203125 L 180.027344 187.835938 C 179.203125 187.015625 177.867188 187.015625 177.046875 187.835938 L 168.007812 196.875 L 168.007812 175.394531 L 183.792969 175.394531 L 183.792969 173.289062 L 166.976562 173.289062 C 166.398438 173.289062 165.921875 173.765625 165.921875 174.34375 L 165.921875 199.601562 C 165.921875 200.179688 166.398438 200.652344 166.976562 200.652344 Z M 166.976562 200.652344 " fill-opacity="1" fill-rule="nonzero"/></g></svg>